<?xml version="1.0" encoding="utf-8"?>
<!-- Generator: Adobe Illustrator 22.0.1, SVG Export Plug-In . SVG Version: 6.00 Build 0)  -->
<svg version="1.1"
	 id="Layer_1" xmlns:cc="http://creativecommons.org/ns#" xmlns:dc="http://purl.org/dc/elements/1.1/" xmlns:inkscape="http://www.inkscape.org/namespaces/inkscape" xmlns:rdf="http://www.w3.org/1999/02/22-rdf-syntax-ns#" xmlns:sodipodi="http://sodipodi.sourceforge.net/DTD/sodipodi-0.dtd" xmlns:svg="http://www.w3.org/2000/svg"
	 xmlns="http://www.w3.org/2000/svg" xmlns:xlink="http://www.w3.org/1999/xlink" x="0px" y="0px" viewBox="0 0 64 64"
	 style="enable-background:new 0 0 64 64;" xml:space="preserve">
<g transform="translate(0,-952.36218)">
	<path d="M25.1,961.4c-0.7,0.1-1.4,0.7-1.3,1.5c0.1,0.8,0.7,1.4,1.4,1.3h5.4v2.9c-14.4,0.7-25.9,12.9-25.9,27.8v5.6
		c0,0.8,0.6,1.4,1.4,1.4h51.8c0.7,0,1.4-0.6,1.4-1.4v-5.6c0-15-11.4-27.1-25.9-27.8v-2.9h5.4c0.7,0,1.4-0.6,1.4-1.4
		c0-0.8-0.6-1.4-1.4-1.4c0,0,0,0-0.1,0H25.2C25.2,961.4,25.2,961.4,25.1,961.4z M32,969.7c13.6,0,24.5,11.2,24.5,25.1v4.2h-49v-4.2
		C7.5,980.9,18.4,969.7,32,969.7z M3.3,1004.6c-0.7,0.1-1.4,0.7-1.3,1.5c0.1,0.8,0.7,1.4,1.4,1.3h57.2c0.7,0,1.4-0.6,1.4-1.4
		c0-0.8-0.6-1.4-1.4-1.4c0,0,0,0-0.1,0H3.4C3.4,1004.6,3.4,1004.6,3.3,1004.6z"/>
</g>
</svg>
