<?xml version="1.0" encoding="utf-8"?>
<!-- Generator: Adobe Illustrator 22.0.1, SVG Export Plug-In . SVG Version: 6.00 Build 0)  -->
<svg version="1.1"
	 id="Layer_1" xmlns:cc="http://creativecommons.org/ns#" xmlns:dc="http://purl.org/dc/elements/1.1/" xmlns:inkscape="http://www.inkscape.org/namespaces/inkscape" xmlns:rdf="http://www.w3.org/1999/02/22-rdf-syntax-ns#" xmlns:sodipodi="http://sodipodi.sourceforge.net/DTD/sodipodi-0.dtd" xmlns:svg="http://www.w3.org/2000/svg"
	 xmlns="http://www.w3.org/2000/svg" xmlns:xlink="http://www.w3.org/1999/xlink" x="0px" y="0px" viewBox="0 0 64 64"
	 style="enable-background:new 0 0 64 64;" xml:space="preserve">
<style type="text/css">
	.st0{stroke:#000000;stroke-miterlimit:10;}
</style>
<g transform="translate(0,-952.36218)">
	<path class="st0" d="M3.3,954.4c-0.8,0-1.4,0.7-1.4,1.5c0,0.8,0.6,1.5,1.4,1.5h7.1l7.2,37.3c-0.1,0.8,0.7,1.7,1.4,1.7h34.1
		c0.8,0,1.4-0.7,1.4-1.5c0-0.8-0.7-1.5-1.4-1.5h-33l-1.2-6h36.9c0.6,0,1.2-0.5,1.3-1.2l4.8-22.5c0.2-0.9-0.5-1.8-1.3-1.8H14.1
		l-1.2-6.3c-0.1-0.7-0.8-1.2-1.4-1.2H3.3z M14.7,964.9h44.3l-4.2,19.5H18.4L14.7,964.9z M26.5,1000.9c-3.3,0-6.1,3.1-6.1,6.8
		c0,3.7,2.8,6.8,6.1,6.8s6.1-3.1,6.1-6.8C32.7,1004,29.9,1000.9,26.5,1000.9z M45.6,1000.9c-3.3,0-6.1,3.1-6.1,6.8
		c0,3.7,2.8,6.8,6.1,6.8s6.1-3.1,6.1-6.8C51.8,1004,49,1000.9,45.6,1000.9z M26.5,1003.9c1.9,0,3.4,1.6,3.4,3.8s-1.5,3.8-3.4,3.8
		s-3.4-1.6-3.4-3.8S24.6,1003.9,26.5,1003.9z M45.6,1003.9c1.9,0,3.4,1.6,3.4,3.8s-1.5,3.8-3.4,3.8s-3.4-1.6-3.4-3.8
		S43.7,1003.9,45.6,1003.9z"/>
</g>
</svg>
