<?xml version="1.0" encoding="utf-8"?>
<!-- Generator: Adobe Illustrator 22.0.1, SVG Export Plug-In . SVG Version: 6.00 Build 0)  -->
<svg version="1.1" id="Layer_1" xmlns="http://www.w3.org/2000/svg" xmlns:xlink="http://www.w3.org/1999/xlink" x="0px" y="0px"
	 viewBox="0 0 64 64" style="enable-background:new 0 0 64 64;" xml:space="preserve">
<style type="text/css">
	.st0{fill:none;stroke:#000000;stroke-width:3;stroke-miterlimit:10;}
	.st1{fill:none;stroke:#000000;stroke-width:3;stroke-linecap:round;stroke-miterlimit:10;}
</style>
<g>
	<circle class="st0" cx="32" cy="32.3" r="30"/>
	<path class="st1" d="M7.9,28"/>
	<polyline class="st1" points="12.6,28 20.1,32.3 12.6,35.8 	"/>
	<polyline class="st1" points="50.7,28 43.2,32.3 50.7,35.8 	"/>
	<path class="st1" d="M21.2,41.2"/>
	<path class="st1" d="M17.9,45.3c-1.1-2.9,0.6-5.7,4.3-5.8c1.8-0.1,3.6,0.6,5.4,1c4.8,1.1,8.7-0.8,13.1-2.3c0.9-0.3,1.7-0.5,2.6-0.4
		c2.6,0.4,3.6,3.5,2.9,5.8c-0.4,1.2-1.1,2.2-2,3.1c-5.8,6.2-19.8,7.3-25.4,0.2C18.5,46.3,18.1,45.8,17.9,45.3z"/>
</g>
</svg>
