<?xml version="1.0" encoding="utf-8"?>
<!-- Generator: Adobe Illustrator 23.0.0, SVG Export Plug-In . SVG Version: 6.00 Build 0)  -->
<svg version="1.1" id="Layer_1" xmlns="http://www.w3.org/2000/svg" xmlns:xlink="http://www.w3.org/1999/xlink" x="0px" y="0px"
	 viewBox="0 0 64 64" style="enable-background:new 0 0 64 64;" xml:space="preserve">
<style type="text/css">
	.st0{fill:none;stroke:#000000;stroke-width:3;stroke-miterlimit:10;}
</style>
<g>
	<path d="M30.7,42.6c-0.8,0-1.5-0.7-1.5-1.5v-2.3c0-4.5,2.8-6.5,5-8.2c2-1.5,3.6-2.6,3.6-5.4c0-3.5-2.3-5.8-5.8-5.8
		c-4,0-5.8,3.2-5.8,6.3c0,0.8-0.7,1.5-1.5,1.5s-1.5-0.7-1.5-1.5c0-4.6,3-9.3,8.8-9.3c5.2,0,8.8,3.7,8.8,8.8c0,4.3-2.6,6.2-4.8,7.8
		c-2.1,1.6-3.7,2.8-3.7,5.8v2.3C32.2,42,31.6,42.6,30.7,42.6z"/>
	<circle cx="30.7" cy="46.9" r="1.5"/>
</g>
<circle class="st0" cx="32" cy="31.9" r="28.7"/>
</svg>
