<?xml version="1.0" encoding="utf-8"?>
<!-- Generator: Adobe Illustrator 22.0.1, SVG Export Plug-In . SVG Version: 6.00 Build 0)  -->
<svg version="1.1"
	 id="Layer_1" xmlns:cc="http://creativecommons.org/ns#" xmlns:dc="http://purl.org/dc/elements/1.1/" xmlns:inkscape="http://www.inkscape.org/namespaces/inkscape" xmlns:rdf="http://www.w3.org/1999/02/22-rdf-syntax-ns#" xmlns:sodipodi="http://sodipodi.sourceforge.net/DTD/sodipodi-0.dtd" xmlns:svg="http://www.w3.org/2000/svg"
	 xmlns="http://www.w3.org/2000/svg" xmlns:xlink="http://www.w3.org/1999/xlink" x="0px" y="0px" viewBox="0 0 64 64"
	 style="enable-background:new 0 0 64 64;" xml:space="preserve">
<g transform="translate(0,-952.36218)">
	<path d="M34.2,956.2c-11.7,0-21.7,7.3-25.9,17.5l-1.6-3c-0.4-0.8-1.3-1.3-2.2-1.3c-1.4,0-2.4,1.1-2.4,2.5c0,0.4,0.1,0.8,0.3,1.1
		l4.5,8.1c0.6,1.1,2.1,1.6,3.2,1l7.9-4.1c1.2-0.6,1.8-2,1.2-3.3c-0.6-1.2-2-1.8-3.2-1.2c-0.1,0-0.1,0.1-0.2,0.1l-2.9,1.5
		c3.5-8.3,11.7-14.1,21.2-14.1c12.8,0,23,10.3,23,23.1s-10.3,23.1-23,23.1c-10.9,0-20-7.5-22.5-17.8c-0.3-1.3-1.6-2.1-2.9-1.8
		c-1.3,0.4-2.1,1.7-1.8,3c2.9,12.4,14,21.6,27.2,21.6c15.4,0,27.9-12.6,27.9-28C62.1,968.7,49.6,956.2,34.2,956.2z M34.6,968.5
		c-1.4,0-2.4,1.1-2.4,2.5l0,0v13.1c0,0.7,0.3,1.5,0.9,1.9l8.1,6.6c1.1,0.8,2.6,0.7,3.4-0.4c0.8-1,0.6-2.6-0.4-3.4l0,0l-7.2-5.9v-12
		C37,969.6,35.9,968.5,34.6,968.5L34.6,968.5z"/>
</g>
</svg>
