<?xml version="1.0" encoding="utf-8"?>
<!-- Generator: Adobe Illustrator 22.0.1, SVG Export Plug-In . SVG Version: 6.00 Build 0)  -->
<svg version="1.1" id="Layer_1" xmlns="http://www.w3.org/2000/svg" xmlns:xlink="http://www.w3.org/1999/xlink" x="0px" y="0px"
	 viewBox="0 0 64 64" style="enable-background:new 0 0 64 64;" xml:space="preserve">
<g>
	<g>
		<path d="M62,54.4H32.6v-2.9h26.3c-1.4-10.8-7.1-18.8-13.5-18.8c-5.9,0-11,6.3-12.9,15.9l-2.9-0.8c2.4-10.8,8.6-18.2,15.9-18.2
			c8.4,0,15.3,9.8,16.5,23.1L62,54.4z"/>
	</g>
	<g>
		<path d="M18.7,31.9c-6.1,0-11.2-5.1-11.2-11.6c0-6.3,4.9-11.6,11.2-11.6s11.2,5.1,11.2,11.6C29.8,26.6,24.9,31.9,18.7,31.9z
			 M18.7,11.7c-4.5,0-8.2,3.9-8.2,8.6s3.7,8.6,8.2,8.6s8.2-3.9,8.2-8.6C27.1,15.6,23.4,11.7,18.7,11.7z"/>
	</g>
	<g>
		<path d="M35.3,61.5H2l0.2-1.6c1.2-13.5,8.2-23.1,16.5-23.1c8.4,0,15.3,9.8,16.5,23.1L35.3,61.5z M5.1,58.4h27.1
			c-1.4-10.8-7.1-18.8-13.5-18.8S6.7,47.6,5.1,58.4z"/>
	</g>
	<g>
		<path d="M45.3,24.8c-6.1,0-11.2-5.1-11.2-11.6S39.1,1.5,45.3,1.5s11.2,5.1,11.2,11.6S51.4,24.8,45.3,24.8z M45.3,4.6
			c-4.5,0-8.2,3.9-8.2,8.6s3.7,8.6,8.2,8.6s8.2-3.9,8.2-8.6S49.8,4.6,45.3,4.6z"/>
	</g>
</g>
</svg>
