<?xml version="1.0" encoding="utf-8"?>
<!-- Generator: Adobe Illustrator 22.0.1, SVG Export Plug-In . SVG Version: 6.00 Build 0)  -->
<svg version="1.1" id="Layer_1" xmlns="http://www.w3.org/2000/svg" xmlns:xlink="http://www.w3.org/1999/xlink" x="0px" y="0px"
	 viewBox="0 0 64 64" style="enable-background:new 0 0 64 64;" xml:space="preserve">
<title>phone</title>
<desc>Created with Sketch.</desc>
<g>
	<g>
		<g>
			<g transform="translate(-40.000000, -95.000000)">
				<path d="M47,151.1c-1.5-1.4-1.9-5.4-1.5-6.8c1.2-0.5,3.3-1.2,7.6-3.2c2.5-1.2,6.1-2.7,7.2-3c0.4,0.3,1.8,1.2,5.4,4.8
					c0.9,0.9,2.2,2.3,13.9-8.1l0.1-0.2c10.3-11.7,9-13.1,8.1-14c-3.7-3.8-4.6-5.1-4.8-5.6c0.3-0.8,1.8-4.5,3-7.2
					c1.8-4.5,2.7-6.6,3-7.7c1.3-0.2,5.4,0.3,6.7,1.7c0.4,0.3,9.3,9.6-3.7,27.7c-0.1,0-0.1,0.2-0.1,0.2c-1,2-3.7,5.1-7.9,9.3l0,0l0,0
					c-0.1,0.2-0.1,0.2-0.1,0.2c-4,4.2-7.2,6.8-9.1,8c0,0.2-0.1,0.2-0.1,0.2C56.6,160.3,47.4,151.6,47,151.1 M44.1,141.4
					c-0.1,0-1.2,0.3-1.8,1.2c-0.7,2-0.3,7.8,2.2,10.4c0.3,0.3,4.3,4.2,11.8,4.2c5.1,0,11.7-1.7,19.8-7.5c2.2-1.2,5.5-4.1,9.9-8.4
					l0,0l0,0c4.3-4.5,7-7.7,8.4-9.9c14.4-20.1,3.9-31.1,3.4-31.6c-2.4-2.6-8.4-3-10.3-2.3c-1.3,0.5-1.5,1.4-1.5,1.8
					c-0.1,0.6-1.8,4.5-3,7.4c-2.5,5.9-3.3,7.7-3.3,8.4c0,0.9,0.3,2.3,5.2,7.2c-0.7,1.7-4,5.9-7.8,10.2c-4.3,3.9-8.5,7.1-10,7.8
					c-4.9-5-6.3-5.3-7.2-5.3c-0.7,0.2-2.4,0.8-8.4,3.3C48.8,139.6,44.9,141.2,44.1,141.4"/>
			</g>
		</g>
	</g>
</g>
</svg>
