<?xml version="1.0" encoding="utf-8"?>
<!-- Generator: Adobe Illustrator 22.0.1, SVG Export Plug-In . SVG Version: 6.00 Build 0)  -->
<svg version="1.1" id="Layer_1" xmlns="http://www.w3.org/2000/svg" xmlns:xlink="http://www.w3.org/1999/xlink" x="0px" y="0px"
	 viewBox="0 0 64 64" style="enable-background:new 0 0 64 64;" xml:space="preserve">
<g>
	<path d="M32,61.8L32,61.8c-2.6,0-4.8-2.2-4.8-4.8V6.6c0-2.7,2.2-4.8,4.8-4.8l0,0c2.6,0,4.8,2.2,4.8,4.8v50.4
		C36.8,59.7,34.7,61.8,32,61.8z"/>
	<path d="M2.1,31.8L2.1,31.8c0-2.7,2.2-4.8,4.8-4.8h50.3c2.6,0,4.8,2.2,4.8,4.8l0,0c0,2.7-2.2,4.8-4.8,4.8H6.8
		C4.2,36.6,2.1,34.5,2.1,31.8z"/>
</g>
</svg>
