<?xml version="1.0" encoding="utf-8"?>
<!-- Generator: Adobe Illustrator 22.0.1, SVG Export Plug-In . SVG Version: 6.00 Build 0)  -->
<svg version="1.1" id="Layer_1" xmlns="http://www.w3.org/2000/svg" xmlns:xlink="http://www.w3.org/1999/xlink" x="0px" y="0px"
	 viewBox="0 0 64 64" style="enable-background:new 0 0 64 64;" xml:space="preserve">
<g id="Layer_2_1_">
</g>
<g id="Layer_1_1_">
	<g>
		<path d="M56.1,6.2H22.9c-1.7,0-3.3,0.8-4.5,2.2L3.4,27c-2,2.4-2,6.1,0,8.5l15,18.6c1.1,1.4,2.8,2.2,4.5,2.2H56
			c3.3,0,5.9-2.9,5.9-6.4V12.6C62,9.1,59.3,6.2,56.1,6.2z M58.4,49.8c0,1.4-1.1,2.6-2.4,2.6H22.9c-0.7,0-1.3-0.3-1.8-0.9l-15-18.6
			c-0.8-1-0.8-2.5,0-3.4l15-18.6c0.4-0.5,1.1-0.9,1.8-0.9H56c1.3,0,2.4,1.2,2.4,2.6V49.8z"/>
		<path d="M21.5,24.5c-3.4,0-6.2,3-6.2,6.7s2.8,6.7,6.2,6.7s6.2-3,6.2-6.7S25,24.5,21.5,24.5z M21.5,34c-1.5,0-2.6-1.3-2.6-2.8
			s1.2-2.8,2.6-2.8c1.4,0,2.6,1.3,2.6,2.8S23,34,21.5,34z"/>
		<path d="M42.6,29.3h-2c-1.5,0-2.7-1.4-2.5-3c0.1-1.4,1.3-2.5,2.7-2.5H43c0.8,0,1.6,0.6,1.7,1.5c0.1,0.3,0.3,0.4,0.5,0.4h2.6
			c0.3,0,0.5-0.3,0.5-0.5c-0.3-2.8-2.3-5-4.9-5.1v-2.7c0-0.3-0.3-0.5-0.5-0.5h-2.5c-0.3,0-0.5,0.3-0.5,0.5v2.8
			c-3.2,0.5-5.6,3.6-5.2,7.2c0.3,3.4,3.2,6,6.3,6h1.6c1.5,0,2.7,1.4,2.5,3c-0.1,1.4-1.3,2.5-2.7,2.5h-2.3c-0.8,0-1.6-0.6-1.7-1.5
			c-0.1-0.2-0.3-0.4-0.5-0.4h-2.6c-0.3,0-0.6,0.3-0.5,0.5c0.3,2.8,2.3,5,4.9,5.1v2.7c0,0.3,0.3,0.5,0.5,0.5h2.5
			c0.3,0,0.5-0.3,0.5-0.5v-2.8c2.7-0.5,5-2.8,5.2-5.8C49,32.6,46.2,29.3,42.6,29.3z"/>
	</g>
</g>
</svg>
