<?xml version="1.0" encoding="utf-8"?>
<!-- Generator: Adobe Illustrator 22.0.1, SVG Export Plug-In . SVG Version: 6.00 Build 0)  -->
<svg version="1.1" id="Layer_1" xmlns="http://www.w3.org/2000/svg" xmlns:xlink="http://www.w3.org/1999/xlink" x="0px" y="0px"
	 viewBox="0 0 64 64" style="enable-background:new 0 0 64 64;" xml:space="preserve">
<style type="text/css">
	.st0{fill:none;stroke:#000000;stroke-width:3;stroke-linecap:round;stroke-linejoin:round;stroke-miterlimit:10;}
</style>
<g>
	<g>
		<path d="M4.7,25.3c-0.8,0-1.4-0.7-1.4-1.4v-21C3.3,2.3,3.7,2,4.1,2h19.2c0.8,0,1.4,0.7,1.4,1.4s-0.7,1.4-1.4,1.4H6v19.1
			C6,24.7,5.3,25.3,4.7,25.3z"/>
	</g>
	<g>
		<path d="M60.5,24.3c-0.8,0-1.4-0.7-1.4-1.4V4.9H41c-0.8,0-1.4-0.7-1.4-1.4S40.3,2,41,2h20.2C61.7,2,62,2.5,62,2.9v20
			C61.9,23.6,61.3,24.3,60.5,24.3z"/>
	</g>
	<g>
		<path d="M23.3,62H4.3c-0.6,0-1-0.5-1-1V40.1c0-0.8,0.7-1.4,1.4-1.4c0.8,0,1.4,0.7,1.4,1.4v19.1h17.3c0.8,0,1.4,0.7,1.4,1.4
			C24.7,61.4,24.1,62,23.3,62z"/>
	</g>
	<g>
		<path d="M61.9,60.9c0,0.6-0.5,1.1-1.1,1.1H41c-0.8,0-1.4-0.7-1.4-1.4c0-0.8,0.7-1.4,1.4-1.4h18.3V41.1c0-0.8,0.7-1.4,1.4-1.4
			c0.8,0,1.4,0.7,1.4,1.4L61.9,60.9L61.9,60.9z"/>
	</g>
</g>
<line class="st0" x1="62" y1="31.6" x2="2" y2="31.6"/>
</svg>
