<?xml version="1.0" encoding="utf-8"?>
<!-- Generator: Adobe Illustrator 22.0.1, SVG Export Plug-In . SVG Version: 6.00 Build 0)  -->
<svg version="1.1" id="Layer_1" xmlns="http://www.w3.org/2000/svg" xmlns:xlink="http://www.w3.org/1999/xlink" x="0px" y="0px"
	 viewBox="0 0 64 64" style="enable-background:new 0 0 64 64;" xml:space="preserve">
<path d="M52.1,42.2c-3.4,0-6.3,1.7-8,4.2L21.2,35.1c0.3-1,0.5-2,0.5-3.1s-0.1-2.1-0.5-3.1L44,17.5c1.8,2.6,4.8,4.2,8,4.2
	c5.5,0.1,10-4.4,10-9.8S57.5,2,52.1,2s-9.9,4.5-9.9,9.9c0,1.1,0.1,2.1,0.5,3.1L19.9,26.3c-1.8-2.6-4.8-4.2-8-4.2
	C6.5,22.1,2,26.6,2,32s4.5,9.9,9.9,9.9c3.4,0,6.3-1.7,8-4.2l22.8,11.4c-0.3,0.9-0.4,1.9-0.4,3c0,5.4,4.5,9.9,9.9,9.9
	s9.9-4.5,9.9-9.9S57.5,42.2,52.1,42.2z M52.1,4.9c3.8,0,7,3.1,7,7s-3.1,7-7,7c-3.8,0-7-3.1-7-7S48.3,4.9,52.1,4.9z M11.9,39
	c-3.8,0-7-3.1-7-7s3.1-7,7-7s7,3.1,7,7S15.7,39,11.9,39z M52.1,59.1c-3.8,0-7-3.1-7-7c0-3.8,3.1-7,7-7c3.8,0,7,3.1,7,7
	C59.1,55.9,55.9,59.1,52.1,59.1z"/>
</svg>
