<?xml version="1.0" encoding="utf-8"?>
<!-- Generator: Adobe Illustrator 22.0.1, SVG Export Plug-In . SVG Version: 6.00 Build 0)  -->
<svg version="1.1" id="Layer_1" xmlns="http://www.w3.org/2000/svg" xmlns:xlink="http://www.w3.org/1999/xlink" x="0px" y="0px"
	 viewBox="0 0 64 64" style="enable-background:new 0 0 64 64;" xml:space="preserve">
<style type="text/css">
	.st0{stroke:#000000;stroke-width:0.5;stroke-miterlimit:10;}
</style>
<path class="st0" d="M60.5,29.6c1.3-1.3,1.8-3.3,1.3-5.1c-0.6-1.8-2-3.1-3.9-3.4l-13.8-2.1c-0.8-0.1-1.4-0.7-1.8-1.3l-6.1-13
	C35.5,3,33.9,2,32,2s-3.5,1-4.3,2.7l-6.1,13c-0.4,0.7-1,1.2-1.8,1.3L6.1,21.1c-1.8,0.3-3.3,1.6-3.9,3.4s-0.1,3.8,1.3,5.1l10,10.2
	c0.5,0.5,0.8,1.3,0.6,2.1l-2.4,14.3C11.5,58,12.1,60,13.6,61c0.9,0.7,1.8,0.9,2.8,0.9c0.8,0,1.5-0.1,2.3-0.5L31,54.6
	c0.6-0.4,1.5-0.4,2.1,0l12.4,6.8c1.6,0.9,3.5,0.8,5-0.4c1.5-1.2,2.3-3,1.9-4.8L50,41.9c-0.1-0.8,0.1-1.6,0.6-2.1L60.5,29.6z
	 M47.5,42.3l2.4,14.3c0.1,0.9-0.1,1.8-0.9,2.3c-0.8,0.5-1.6,0.7-2.4,0.1l-12.4-6.8c-1.4-0.8-3-0.8-4.4,0l-12.4,6.8
	c-0.8,0.4-1.6,0.4-2.4-0.1c-0.8-0.5-1-1.4-0.9-2.3l2.4-14.3c0.3-1.6-0.3-3.3-1.4-4.4l-10-10.2c-0.6-0.7-0.9-1.6-0.6-2.3
	c0.3-0.9,1-1.4,1.9-1.6l13.8-2.1c1.5-0.3,2.9-1.3,3.6-2.7l6.1-13c0.4-0.8,1.1-1.3,2-1.3c0.9,0,1.6,0.5,2,1.3l6.1,13
	c0.8,1.4,2,2.5,3.6,2.7l13.8,2.1c0.9,0.1,1.5,0.8,1.9,1.6c0.4,0.8,0,1.8-0.6,2.3l-10,10.2C47.8,39,47.3,40.7,47.5,42.3z"/>
</svg>
