<?xml version="1.0" encoding="utf-8"?>
<!-- Generator: Adobe Illustrator 22.0.1, SVG Export Plug-In . SVG Version: 6.00 Build 0)  -->
<svg version="1.1" id="Layer_1" xmlns="http://www.w3.org/2000/svg" xmlns:xlink="http://www.w3.org/1999/xlink" x="0px" y="0px"
	 viewBox="0 0 64 64" style="enable-background:new 0 0 64 64;" xml:space="preserve">
<style type="text/css">
	.st0{fill:#606060;}
</style>
<g>
	<g>
		<path class="st0" d="M47.2,1.8h-8.6c-1,0-1.9,0.7-2.2,1.8C35.7,5.6,34,7,32,7s-3.7-1.4-4.4-3.4c-0.3-1-1.2-1.8-2.2-1.8h-8.6
			c-1.3,0-2.3,1.2-2.3,2.6v54.8c0,1.4,1,2.6,2.3,2.6h30.3c1.3,0,2.3-1.2,2.3-2.6V4.4C49.5,3,48.4,1.8,47.2,1.8z M30.8,18.8h2.3
			c0.6,0,1.2,0.6,1.2,1.3c0,0.7-0.5,1.3-1.2,1.3h-2.3c-0.6,0-1.2-0.6-1.2-1.3C29.7,19.3,30.2,18.8,30.8,18.8z M19.4,21.4h-2.3
			c-0.6,0-1.2-0.6-1.2-1.3c0-0.7,0.5-1.3,1.2-1.3h2.3c0.6,0,1.2,0.6,1.2,1.3C20.6,20.8,20,21.4,19.4,21.4z M22.7,20.1
			c0-0.7,0.5-1.3,1.2-1.3h2.3c0.6,0,1.2,0.6,1.2,1.3c0,0.7-0.5,1.3-1.2,1.3h-2.3C23.2,21.4,22.7,20.8,22.7,20.1z M27.6,30.2
			c2.3,0,4.1,2,4.1,4.6s-1.8,4.6-4.1,4.6s-4.1-2-4.1-4.6C23.5,32.2,25.3,30.2,27.6,30.2z M24,52c-0.5-0.5-0.6-1.3-0.2-1.8l14.6-19.6
			c0.2-0.3,0.5-0.5,0.9-0.5c0.3,0,0.5,0.1,0.8,0.3c0.5,0.5,0.5,1.3,0.2,1.8L25.6,51.8C25.2,52.4,24.5,52.5,24,52z M36.4,52.3
			c-2.3,0-4.1-2-4.1-4.6s1.8-4.6,4.1-4.6s4.1,2,4.1,4.6C40.5,50.3,38.7,52.3,36.4,52.3z M40.2,21.4h-2.3c-0.6,0-1.2-0.6-1.2-1.3
			c0-0.7,0.5-1.3,1.2-1.3h2.3c0.6,0,1.2,0.6,1.2,1.3C41.3,20.8,40.8,21.4,40.2,21.4z M46.8,21.4h-2.3c-0.6,0-1.2-0.6-1.2-1.3
			c0-0.7,0.5-1.3,1.2-1.3h2.3c0.6,0,1.2,0.6,1.2,1.3C47.9,20.8,47.4,21.4,46.8,21.4z"/>
	</g>
	<ellipse class="st0" cx="27.6" cy="34.7" rx="1.8" ry="2"/>
	<ellipse class="st0" cx="36.4" cy="47.8" rx="1.8" ry="2"/>
</g>
</svg>
