<?xml version="1.0" encoding="utf-8"?>
<!-- Generator: Adobe Illustrator 22.0.1, SVG Export Plug-In . SVG Version: 6.00 Build 0)  -->
<svg version="1.1" id="Layer_1" xmlns="http://www.w3.org/2000/svg" xmlns:xlink="http://www.w3.org/1999/xlink" x="0px" y="0px"
	 viewBox="0 0 64 64" style="enable-background:new 0 0 64 64;" xml:space="preserve">
<style type="text/css">
	.st0{fill:none;stroke:#000000;stroke-width:2;stroke-linecap:round;stroke-miterlimit:10;}
	.st1{fill:none;stroke:#000000;stroke-width:2;stroke-linecap:round;stroke-linejoin:round;stroke-miterlimit:10;}
</style>
<g>
	<line class="st0" x1="38.7" y1="31.9" x2="23.9" y2="52.2"/>
	<path d="M26.6,38.7c2.4,0,4.3-1.9,4.3-4.3s-1.9-4.3-4.3-4.3s-4.3,1.9-4.3,4.3S24.3,38.7,26.6,38.7z M26.6,31.4
		c1.6,0,2.8,1.3,2.8,2.9s-1.2,2.9-2.8,2.9s-2.8-1.3-2.8-2.9S25,31.4,26.6,31.4z"/>
	<path d="M35.9,53.4c2.4,0,4.3-1.9,4.3-4.3s-1.9-4.3-4.3-4.3s-4.3,1.9-4.3,4.3C31.6,51.5,33.5,53.4,35.9,53.4z M35.9,46.2
		c1.6,0,2.8,1.3,2.8,2.9S37.5,52,35.9,52c-1.6,0-2.8-1.3-2.8-2.9C33.1,47.4,34.3,46.2,35.9,46.2z"/>
	<path class="st1" d="M14.5,1.8v60c0,0,34.2,0.1,34.2,0s0-60,0-60H38c0,0-1.9,5.4-6.2,5.3s-6.8-5.3-6.8-5.3S14.5,1.9,14.5,1.8z"/>
	<line class="st0" x1="15.3" y1="19.3" x2="18.3" y2="19.3"/>
	<line class="st0" x1="22.7" y1="19.3" x2="25.8" y2="19.3"/>
	<line class="st0" x1="30.1" y1="19.3" x2="33.1" y2="19.3"/>
	<line class="st0" x1="37.4" y1="19.3" x2="40.5" y2="19.3"/>
	<line class="st0" x1="44.9" y1="19.3" x2="47.9" y2="19.3"/>
</g>
</svg>
