<?xml version="1.0" encoding="utf-8"?>
<!-- Generator: Adobe Illustrator 22.0.1, SVG Export Plug-In . SVG Version: 6.00 Build 0)  -->
<svg version="1.1" id="Layer_1" xmlns="http://www.w3.org/2000/svg" xmlns:xlink="http://www.w3.org/1999/xlink" x="0px" y="0px"
	 viewBox="0 0 64 64" style="enable-background:new 0 0 64 64;" xml:space="preserve">
<style type="text/css">
	.st0{fill:none;stroke:#000000;stroke-width:2.5;stroke-linecap:round;stroke-miterlimit:10;}
	.st1{stroke:#000000;stroke-width:0.5;stroke-miterlimit:10;}
</style>
<line class="st0" x1="40.5" y1="32.2" x2="23.2" y2="52.5"/>
<path class="st1" d="M26.4,40c2.8,0,5-2.1,5-4.8s-2.2-4.8-5-4.8s-5,2.1-5,4.8S23.6,40,26.4,40z M26.4,31.9c1.9,0,3.3,1.4,3.3,3.2
	s-1.4,3.2-3.3,3.2s-3.3-1.4-3.3-3.2S24.5,31.9,26.4,31.9z"/>
<path class="st1" d="M37.2,53.8c2.8,0,5-2.1,5-4.8c0-2.7-2.2-4.8-5-4.8c-2.8,0-5,2.1-5,4.8C32.2,51.6,34.4,53.8,37.2,53.8z
	 M37.2,45.8c1.9,0,3.3,1.4,3.3,3.2c0,1.8-1.4,3.2-3.3,3.2c-1.9,0-3.3-1.4-3.3-3.2C33.9,47.1,35.3,45.8,37.2,45.8z"/>
<path class="st0" d="M12.2,2.2v60c0,0,40,0.1,40,0s0-60,0-60H39.7c0,0-2.2,5.4-7.2,5.3s-7.9-5.3-7.9-5.3H12.2z"/>
<line class="st0" x1="13.1" y1="19.6" x2="16.7" y2="19.6"/>
<line class="st0" x1="21.8" y1="19.6" x2="25.4" y2="19.6"/>
<line class="st0" x1="30.4" y1="19.6" x2="34" y2="19.6"/>
<line class="st0" x1="39" y1="19.6" x2="42.6" y2="19.6"/>
<line class="st0" x1="47.7" y1="19.6" x2="51.3" y2="19.6"/>
</svg>
