<?xml version="1.0" encoding="utf-8"?>
<!-- Generator: Adobe Illustrator 22.0.1, SVG Export Plug-In . SVG Version: 6.00 Build 0)  -->
<svg version="1.1" id="Layer_1" xmlns="http://www.w3.org/2000/svg" xmlns:xlink="http://www.w3.org/1999/xlink" x="0px" y="0px"
	 viewBox="0 0 64 64" style="enable-background:new 0 0 64 64;" xml:space="preserve">
<title>icon-01</title>
<path d="M32,59.1C47,59.1,59.1,47,59.1,32S47,4.9,32,4.9S4.9,17,4.9,32S17,59.1,32,59.1z M32,62C15.4,62,2,48.6,2,32S15.4,2,32,2
	s30,13.4,30,30S48.6,62,32,62z M30.6,14.9c0-0.8,0.6-1.4,1.4-1.4c0.8,0,1.4,0.6,1.4,1.4l0,0V32c0,0.4-0.1,0.7-0.4,1l-8.5,8.7
	c-0.6,0.6-1.5,0.6-2,0c-0.6-0.5-0.6-1.4,0-2l8-8.3L30.6,14.9L30.6,14.9z"/>
</svg>
