<?xml version="1.0" encoding="utf-8"?>
<!-- Generator: Adobe Illustrator 22.0.1, SVG Export Plug-In . SVG Version: 6.00 Build 0)  -->
<svg version="1.1" id="Layer_1" xmlns="http://www.w3.org/2000/svg" xmlns:xlink="http://www.w3.org/1999/xlink" x="0px" y="0px"
	 viewBox="0 0 64 64" style="enable-background:new 0 0 64 64;" xml:space="preserve">
<title>06</title>
<g>
	<path d="M57.4,11.2H41.1V7.1c0-2.8-2.2-5.1-4.9-5.1h-9.4c-2.7,0-4.9,2.3-4.9,5.1v4.1H5.6C4.7,11.2,4,12,4,12.9
		c0,0.9,0.7,1.7,1.6,1.7h5.8v38.9c0,4.7,3.7,8.5,8.2,8.5h23.6c4.5,0,8.2-3.8,8.2-8.5V14.6h5.8c0.9,0,1.6-0.8,1.6-1.7
		C59,12,58.3,11.2,57.4,11.2z M25.2,7.1c0-0.9,0.7-1.7,1.6-1.7h9.4c0.9,0,1.6,0.8,1.6,1.7v4.1H25.2V7.1z M48.2,53.6
		c0,2.8-2.2,5.1-4.9,5.1H19.7c-2.7,0-4.9-2.3-4.9-5.1V14.6h33.5L48.2,53.6z"/>
	<path d="M37.7,50.8c0.9,0,1.6-0.8,1.6-1.7V23.6c0-0.9-0.7-1.7-1.6-1.7S36,22.6,36,23.6V49C36,50,36.8,50.8,37.7,50.8z"/>
	<path d="M25.3,50.8c0.9,0,1.6-0.8,1.6-1.7V23.6c0-0.9-0.7-1.7-1.6-1.7c-0.9,0-1.6,0.8-1.6,1.7V49C23.7,50,24.4,50.8,25.3,50.8z"/>
</g>
</svg>
