<?xml version="1.0" encoding="utf-8"?>
<!-- Generator: Adobe Illustrator 22.0.1, SVG Export Plug-In . SVG Version: 6.00 Build 0)  -->
<svg version="1.1" id="Layer_1" xmlns="http://www.w3.org/2000/svg" xmlns:xlink="http://www.w3.org/1999/xlink" x="0px" y="0px"
	 viewBox="0 0 64 64" style="enable-background:new 0 0 64 64;" xml:space="preserve">
<g>
	<path d="M3.9,33.9C2.8,33.9,2,33.1,2,32C2,15.5,15.5,2,32,2c8.1,0,15.6,3.2,21.2,8.8c0.7,0.8,0.7,1.9,0,2.6c-0.8,0.8-1.9,0.8-2.6,0
		C45.7,8.6,38.9,5.8,32,5.8C17.6,5.8,5.8,17.6,5.8,32C5.8,33.1,5,33.9,3.9,33.9z"/>
	<path d="M53.6,17H43.3c-1.1,0-1.9-0.8-1.9-1.9s0.8-1.9,1.9-1.9h9.4V3.9c0-1.1,0.8-1.9,1.9-1.9s1.9,0.8,1.9,1.9v10.3
		C56.4,15.7,55.1,17,53.6,17z"/>
	<path d="M32,62c-8.1,0-15.6-3.2-21.2-8.8c-0.8-0.8-0.8-1.9,0-2.6c0.8-0.8,1.9-0.8,2.6,0c4.9,4.9,11.6,7.7,18.6,7.7
		c14.4,0,26.3-11.8,26.3-26.3c0-1.1,0.8-1.9,1.9-1.9S62,30.9,62,32C62,48.5,48.5,62,32,62z"/>
	<path d="M9.5,62c-1.1,0-1.9-0.8-1.9-1.9V49.8c0-1.5,1.3-2.8,2.8-2.8h10.3c1.1,0,1.9,0.8,1.9,1.9s-0.8,1.9-1.9,1.9h-9.4v9.4
		C11.4,61.3,10.6,62,9.5,62z"/>
</g>
</svg>
