<?xml version="1.0" encoding="utf-8"?>
<!-- Generator: Adobe Illustrator 22.0.1, SVG Export Plug-In . SVG Version: 6.00 Build 0)  -->
<svg version="1.1" id="Layer_1" xmlns="http://www.w3.org/2000/svg" xmlns:xlink="http://www.w3.org/1999/xlink" x="0px" y="0px"
	 viewBox="0 0 64 64" style="enable-background:new 0 0 64 64;" xml:space="preserve">
<path d="M60.8,19.3h-1.9c-0.6-5.6-5-10.2-10.5-10.7V5.9c0-0.8-0.5-1.3-1.3-1.3c-0.8,0-1.3,0.5-1.3,1.3v2.7
	c-5.5,0.6-10,5.1-10.5,10.7h-1.9c-0.8,0-1.3,0.5-1.3,1.3c0,0.8,0.5,1.3,1.3,1.3h9.8l-5.4,9.7l-14.4-6.3c-0.1,0-0.1,0-0.3,0
	c2.4-1.8,4-4.7,4-8c0-5.4-4.4-9.8-9.8-9.8s-9.6,4.6-9.6,10c0,3.3,1.6,6.1,4.1,7.9C6,27.2,2,32.7,2,39v19.4c0,0.8,0.5,1.3,1.3,1.3
	h25.3c0.8,0,1.3-0.5,1.3-1.3V40.5c9.9,2.4,10,2.6,11,2.6c2.4,0,4.4-1.4,5.4-3.6l5.6-13c0.6-1.4,0.6-2.9-0.1-4.5h9.1
	c0.8,0,1.3-0.5,1.3-1.3C62,20,61.5,19.3,60.8,19.3z M10.2,17.4c0-4.1,3.1-7.4,7.1-7.4c3.9,0,7.1,3.2,7.1,7.3s-3.1,7.4-7.1,7.4h-0.1
	C13.6,24.7,10.4,21.5,10.2,17.4z M49.4,25.3l-5.5,13.1c-0.6,1.5-2.3,2.3-3.9,1.9l-11.3-2.7c-0.4-0.1-0.8,0-1.1,0.3
	c-0.3,0.3-0.5,0.6-0.5,1v18.1H4.5V39c0-5.1,3.4-9.7,8.1-11.1h10l15.1,6.6c0.6,0.3,1.3,0,1.6-0.5l6-10.8c0.6-1,1.9-1.4,3-1
	C49.4,22.7,50,24.1,49.4,25.3z M37.9,19.3c0.6-4.7,4.5-8.3,9.3-8.3s8.6,3.6,9.3,8.3C49.5,19.3,44.5,19.3,37.9,19.3z"/>
</svg>
