<?xml version="1.0" encoding="utf-8"?>
<!-- Generator: Adobe Illustrator 23.0.0, SVG Export Plug-In . SVG Version: 6.00 Build 0)  -->
<svg version="1.1" id="Layer_1" xmlns="http://www.w3.org/2000/svg" xmlns:xlink="http://www.w3.org/1999/xlink" x="0px" y="0px"
	 viewBox="0 0 64 64" style="enable-background:new 0 0 64 64;" xml:space="preserve">
<style type="text/css">
	.st0{fill:none;stroke:#000000;stroke-width:3;stroke-miterlimit:10;}
	.st1{stroke:#231F20;stroke-width:0.75;stroke-miterlimit:10;}
</style>
<path class="st0" d="M17.4,56.6c4.3,2.7,9.4,4.2,14.9,4.2c15.8,0,28.6-12.8,28.6-28.6S48.1,3.6,32.3,3.6S3.7,16.4,3.7,32.2
	C3.7,38,5.5,43.4,8.5,48c1,1.6-3.1,12.2-3.1,12.2L17.4,56.6z"/>
<title>phone</title>
<desc>Created with Sketch.</desc>
<g>
	<g>
		<g>
			<g transform="translate(-40.000000, -95.000000)">
				<path class="st1" d="M85.1,139.9c-0.2,0.3-5.1,4.9-14.6-2c0,0-0.1,0-0.1-0.1c-1-0.6-2.7-2-4.8-4.2c0,0,0,0-0.1-0.1l0,0l0,0
					c-2.2-2.2-3.6-3.8-4.2-4.9c0,0,0-0.1-0.1-0.1c-6.9-9.5-2.2-14.4-2-14.6c0.7-0.7,2.8-1,3.5-0.9c0.2,0.6,0.6,1.7,1.6,4.1
					c0.6,1.4,1.4,3.4,1.6,3.8c-0.1,0.3-0.6,0.9-2.5,3c-0.5,0.5-1.2,1.2,4.3,7.4l0.1,0.1c6.2,5.5,6.9,4.7,7.3,4.3
					c1.9-1.9,2.6-2.4,2.8-2.5c0.6,0.2,2.5,0.9,3.8,1.6c2.3,1.1,3.4,1.4,4,1.7C86.1,137.1,85.9,139.2,85.1,139.9 M86.7,134.8
					c-0.4-0.1-2.5-0.9-3.9-1.6c-3.2-1.3-4.1-1.6-4.4-1.7c-0.5,0-1.2,0.2-3.8,2.8c-0.8-0.4-3-2.1-5.3-4.1c-2-2.3-3.7-4.5-4.1-5.4
					c2.6-2.6,2.7-3.3,2.7-3.8c0-0.4-0.4-1.3-1.7-4.4c-0.6-1.5-1.5-3.6-1.6-3.9c0-0.2-0.1-0.7-0.8-0.9c-1-0.4-4.2-0.2-5.4,1.2
					c-0.3,0.3-5.8,6.1,1.8,16.7c0.7,1.2,2.2,2.8,4.4,5.2l0,0l0,0c2.3,2.3,4.1,3.8,5.2,4.4c4.3,3.1,7.8,4,10.4,4c4,0,6.1-2.1,6.2-2.2
					c1.3-1.4,1.5-4.4,1.2-5.5C87.3,135,86.7,134.8,86.7,134.8"/>
			</g>
		</g>
	</g>
</g>
</svg>
